<svg width="36" height="36" viewBox="0 0 36 36" fill="none" xmlns="http://www.w3.org/2000/svg">
<path d="M7 24.5C7 26.9853 9.01472 29 11.5 29H27C27.5523 29 28 29.4477 28 30C28 30.5523 27.5523 31 27 31H11C7.68629 31 5 28.3137 5 25V9C5 8.44772 5.44772 8 6 8C6.55228 8 7 8.44772 7 9V24.5Z" fill="#6C2EFF"/>
<path d="M28.5 5C29.8807 5 31 6.11929 31 7.5V24.5C31 25.8807 29.8807 27 28.5 27H11.5C10.1193 27 9 25.8807 9 24.5V7.5C9 6.11929 10.1193 5 11.5 5H28.5ZM15 16C14.4477 16 14 16.4477 14 17C14 17.5523 14.4477 18 15 18H26C26.5523 18 27 17.5523 27 17C27 16.4477 26.5523 16 26 16H15ZM15 12C14.4477 12 14 12.4477 14 13C14 13.5523 14.4477 14 15 14H26C26.5523 14 27 13.5523 27 13C27 12.4477 26.5523 12 26 12H15Z" fill="#6C2EFF"/>
</svg>
