<svg width="36" height="36" viewBox="0 0 36 36" fill="none" xmlns="http://www.w3.org/2000/svg">
<path d="M29.0166 24.9023L28.1697 24.3706C27.9179 24.7717 27.9819 25.2944 28.3232 25.6229L29.0166 24.9023ZM32.0059 27.7793L31.3124 28.4998L31.3125 28.4999L32.0059 27.7793ZM24.0654 29.5V28.5C23.9026 28.5 23.7422 28.5398 23.5982 28.6159L24.0654 29.5ZM18 5V6C24.6274 6 30 11.3726 30 18H31H32C32 10.268 25.732 4 18 4V5ZM31 18H30C30 20.3423 29.3287 22.5246 28.1697 24.3706L29.0166 24.9023L29.8635 25.4341C31.2163 23.2795 32 20.7302 32 18H31ZM29.0166 24.9023L28.3232 25.6229L31.3124 28.4998L32.0059 27.7793L32.6993 27.0588L29.71 24.1818L29.0166 24.9023ZM32.0059 27.7793L31.3125 28.4999L31.3125 28.5V29.5V30.5C33.1131 30.5 33.9965 28.307 32.6992 27.0587L32.0059 27.7793ZM31.3125 29.5V28.5H24.0654V29.5V30.5H31.3125V29.5ZM24.0654 29.5L23.5982 28.6159C21.9274 29.4989 20.0237 30 18 30V31V32C20.3579 32 22.5816 31.4153 24.5327 30.3841L24.0654 29.5ZM18 31V30C11.3726 30 6 24.6274 6 18H5H4C4 25.732 10.268 32 18 32V31ZM5 18H6C6 11.3726 11.3726 6 18 6V5V4C10.268 4 4 10.268 4 18H5Z" fill="#D4D4D4"/>
<path d="M17.7601 25C17.0899 25 16.5994 24.5284 16.5994 23.8839C16.5994 23.2237 17.0899 22.7678 17.7601 22.7678C18.4468 22.7678 18.9209 23.2237 18.9209 23.8839C18.9209 24.5284 18.4468 25 17.7601 25ZM17.7225 21.2352C17.1379 21.2395 16.6422 20.7655 16.7397 20.1891C16.9246 19.0963 17.458 18.3197 18.4304 17.6276C19.5912 16.7944 19.8364 16.3543 19.8691 15.7255C19.9345 14.7352 19.1498 14.0435 18.0054 14.0435C17.4766 14.0435 16.9604 14.2746 16.5632 14.6536C16.151 15.0469 15.5713 15.3396 15.0344 15.1492C14.4684 14.9485 14.1734 14.3083 14.5282 13.8237C15.3388 12.7165 16.6619 12 18.0054 12C20.4576 12 22.1088 13.5719 21.9944 15.8198C21.929 16.9831 21.3241 18.0992 19.7056 19.2781C19.2524 19.5959 19.0118 19.8193 18.8926 20.1693C18.703 20.7264 18.3109 21.2309 17.7225 21.2352Z" fill="#D4D4D4"/>
</svg>
