<svg xmlns="http://www.w3.org/2000/svg" width="10" height="11" viewBox="0 0 10 11" fill="none">
    <path d="M7.42871 0.100342C9.85211 0.176891 9.84815 3.69505 7.42871 3.77026H7.42578C6.91164 3.77026 6.45322 3.5521 6.12109 3.21167C6.10811 3.21937 6.09349 3.22932 6.07715 3.23901C6.00644 3.28095 5.90517 3.34108 5.78418 3.41284C5.54173 3.55665 5.21865 3.74851 4.89551 3.94019C4.57218 4.13196 4.24835 4.3237 4.00586 4.46753C3.88477 4.53935 3.78355 4.59945 3.71289 4.64136C3.69719 4.65067 3.68252 4.6583 3.66992 4.66577C3.77828 5.00889 3.77851 5.38946 3.66992 5.73315C3.68263 5.74069 3.69702 5.74913 3.71289 5.75854C3.7836 5.80048 3.88467 5.86049 4.00586 5.93237C4.24838 6.07622 4.57214 6.26791 4.89551 6.45972C5.21867 6.6514 5.54172 6.84324 5.78418 6.98706C5.90518 7.05883 6.00643 7.11894 6.07715 7.16089C6.09235 7.16991 6.10684 7.178 6.11914 7.1853C7.212 6.02078 9.27865 6.82513 9.26074 8.4646L9.25098 8.6521C9.1568 9.57585 8.37484 10.2981 7.42676 10.2986L7.42773 10.2996C6.21522 10.3238 5.29609 9.06899 5.67578 7.93042L3.22754 6.47729C2.88978 6.82517 2.42127 7.03687 1.9209 7.03687H1.91797C-0.508286 6.95966 -0.503186 3.4392 1.91797 3.36304H1.9209C2.42004 3.36304 2.88882 3.57235 3.22754 3.92065L5.6748 2.46851C5.29626 1.32961 6.21555 0.0767844 7.42773 0.100342H7.42871ZM7.42578 7.49585C6.15057 7.53152 6.15026 9.39654 7.42578 9.43237C8.70075 9.39645 8.70089 7.53194 7.42578 7.49585ZM1.9209 4.23022C0.644445 4.26641 0.64375 6.13156 1.91992 6.1687C3.19299 6.13224 3.19472 4.26672 1.9209 4.23022ZM7.42578 0.966553C6.15046 1.00219 6.15036 2.86721 7.42578 2.90308C8.70064 2.86713 8.701 1.00261 7.42578 0.966553Z" fill="#6C2EFF" stroke="#6C2EFF" stroke-width="0.2"/>
</svg>
